<?xml version="1.0" encoding="UTF-8"?> <svg xmlns="http://www.w3.org/2000/svg" width="127" height="177" viewBox="0 0 127 177" fill="none"><path d="M126.764 47.776V175H87.776V157.672C83.824 163.296 78.428 167.856 71.588 171.352C64.9 174.696 57.452 176.368 49.244 176.368C39.516 176.368 30.928 174.24 23.48 169.984C16.032 165.576 10.256 159.268 6.152 151.06C2.048 142.852 -0.00399914 133.2 -0.00399914 122.104V47.776H38.756V116.86C38.756 125.372 40.96 131.984 45.368 136.696C49.776 141.408 55.704 143.764 63.152 143.764C70.752 143.764 76.756 141.408 81.164 136.696C85.572 131.984 87.776 125.372 87.776 116.86V47.776H126.764ZM41.036 33.64C36.324 33.64 32.372 32.044 29.18 28.852C25.988 25.66 24.392 21.708 24.392 16.996C24.392 12.284 25.988 8.33199 29.18 5.13999C32.372 1.79599 36.324 0.123996 41.036 0.123996C45.9 0.123996 49.928 1.71999 53.12 4.91199C56.312 8.10399 57.908 12.132 57.908 16.996C57.908 21.708 56.236 25.66 52.892 28.852C49.7 32.044 45.748 33.64 41.036 33.64ZM86.636 33.64C81.924 33.64 77.972 32.044 74.78 28.852C71.588 25.66 69.992 21.708 69.992 16.996C69.992 12.284 71.588 8.33199 74.78 5.13999C77.972 1.79599 81.924 0.123996 86.636 0.123996C91.5 0.123996 95.528 1.71999 98.72 4.91199C101.912 8.10399 103.508 12.132 103.508 16.996C103.508 21.708 101.836 25.66 98.492 28.852C95.3 32.044 91.348 33.64 86.636 33.64Z" fill="url(#paint0_linear_386_14)"></path><defs><linearGradient id="paint0_linear_386_14" x1="-14.1754" y1="84.5" x2="16.392" y2="83.4618" gradientUnits="userSpaceOnUse"><stop stop-color="#00A6FB"></stop><stop offset="1" stop-color="#5CC9FF"></stop></linearGradient></defs></svg> 