<?xml version="1.0" encoding="UTF-8"?> <svg xmlns="http://www.w3.org/2000/svg" id="Camada_2" data-name="Camada 2" viewBox="0 0 797.71 698.89"><defs><style> .cls-1 { fill: #00a6fb; } .cls-1, .cls-2 { stroke-width: 0px; } .cls-3 { fill: none; stroke: #fff; stroke-linecap: round; stroke-miterlimit: 10; stroke-width: 20px; } .cls-2 { fill: #fff; } </style></defs><g id="Camada_1-2" data-name="Camada 1"><g><g><path class="cls-1" d="M90.92,25.2h0c.46,0,.92-.03,1.38-.03.87,0,1.75.02,2.65.05L99.63,0h-14.67l4.68,25.23c.43-.02.86-.02,1.29-.03Z"></path><path class="cls-1" d="M24.39,33.54l19.03,13.08c1.21-1.32,2.49-2.6,3.83-3.83l-13.08-19.05h0l-1.3-1.89-10.38,10.39,1.89,1.3h0Z"></path><path class="cls-1" d="M25.78,91.69c0-.97.02-1.93.07-2.88l-24.57-4.56v14.69l24.58-4.57c-.05-.91-.08-1.81-.08-2.68Z"></path><path class="cls-1" d="M23.18,151.11l10.39,10.39,14.05-20.46c-1.12-1.48-2.22-2.95-3.31-4.44l-21.13,14.52Z"></path><path class="cls-1" d="M161.8,32.25l-10.39-10.39-14.26,20.76c1.35,1.23,2.66,2.53,3.9,3.87l20.75-14.25Z"></path><path class="cls-1" d="M158.74,88.76c.04.96.07,1.94.07,2.93,0,.92-.03,1.83-.08,2.74l24.31,4.51v-14.69l-24.3,4.51Z"></path><path class="cls-1" d="M136.82,141.23l13.92,20.27,10.37-10.39-20.94-14.39c-1.11,1.52-2.23,3.01-3.36,4.51Z"></path></g><g><path class="cls-1" d="M82.77,218.46c-.23.84-.4,1.71-.4,2.62,0,5.41,4.38,9.79,9.79,9.79s9.79-4.38,9.79-9.79c0-.91-.17-1.78-.4-2.62h-18.78Z"></path><g><polygon class="cls-2" points="67.32 198.35 119.11 190.49 119.11 184.27 67.32 192.13 67.32 198.35"></polygon><polygon class="cls-2" points="67.32 207.5 119.11 199.64 119.11 193.71 67.32 201.57 67.32 207.5"></polygon><path class="cls-2" d="M67.32,210.72c.01,2.33,1.9,4.21,4.24,4.21h43.31c2.34,0,4.24-1.9,4.24-4.24v-7.84l-51.79,7.86Z"></path><path class="cls-2" d="M119.11,181.05v-.15c0-2.34-1.9-4.24-4.24-4.24h-43.31c-2.34,0-4.24,1.9-4.24,4.24v8.01l51.79-7.86Z"></path></g></g><path class="cls-2" d="M126.98,54.2c-9.49-7.45-21.35-12.17-33.51-11.87-14.75.36-28.13,5.97-37.83,15.65-.24.21-.47.44-.65.71-2.82,4.23-6.17,7.82-8.55,12.41-2.29,4.41-4.09,9.2-5.24,14.04-2.21,9.39-1.6,19.28,2.08,28.23,2.91,7.08,7.53,13.26,12.03,19.39,4.78,6.52,9.28,13.27,13.88,19.93,2.75,3.97,2.64,7.37,2.8,11.99.09,2.78.19,5.56.28,8.33h19.68c-.18-.33-.31-.69-.31-1.09v-43.76l-25.78-25.78c-.89-.89-.89-2.33,0-3.22s2.33-.89,3.22,0l25.11,25.11s.09.02.13.03l25.14-25.13c.89-.89,2.33-.89,3.22,0s.89,2.33,0,3.22l-26.48,26.48v43.06c0,.4-.13.76-.32,1.09h18.78c.22-3.45.44-6.9.67-10.35.16-2.42-.02-4.96.66-7.3.82-2.82,2.52-5.32,4.37-7.56,6.4-7.77,12.47-16.11,17.44-24.96,4.58-8.14,9.82-17.97,10.39-27.44.96-16.16-8.89-31.55-21.21-41.21Z"></path></g><g><path class="cls-1" d="M772.58,226.85l-66.53-72.44c-4.79-4.79-4.79-12.54,0-17.33h0c4.79-4.79,12.54-4.79,17.33,0l71.64,67.33c4.79,4.79,2.63,14.7-2.15,19.48h0c-4.79,4.79-15.5,7.74-20.28,2.96Z"></path><path class="cls-2" d="M668.29,27.86c-39.47,0-71.46,31.99-71.46,71.46s31.99,71.46,71.46,71.46,71.46-31.99,71.46-71.46-31.99-71.46-71.46-71.46ZM668.29,152.73c-29.5,0-53.42-23.91-53.42-53.42s23.91-53.42,53.42-53.42,53.42,23.92,53.42,53.42-23.92,53.42-53.42,53.42Z"></path></g><g><rect class="cls-1" x="16.32" y="525.44" width="33.69" height="100.98" rx="2.41" ry="2.41" transform="translate(209.24 26.57) rotate(21.07)"></rect><rect class="cls-1" x="224.3" y="520.02" width="33.69" height="100.98" rx="2.41" ry="2.41" transform="translate(671.24 1016.21) rotate(158.93)"></rect><g><g><path class="cls-2" d="M63.78,657.12c-1.34,0-2.63-.42-3.73-1.22l-.78-.57c-1.41-1.03-2.36-2.58-2.65-4.36-.3-1.78.08-3.57,1.08-5.04l8.72-12.85c1.21-1.79,3.21-2.86,5.34-2.86,1.34,0,2.63.42,3.72,1.22l.78.57c2.93,2.14,3.64,6.36,1.58,9.4l-8.72,12.85c-1.21,1.79-3.21,2.85-5.33,2.85h0Z"></path><path class="cls-2" d="M79.42,672.37c-1.57,0-3.08-.49-4.36-1.43-1.65-1.21-2.75-3.02-3.1-5.1-.35-2.08.1-4.17,1.26-5.89l11.28-16.63c1.42-2.09,3.75-3.34,6.24-3.34,1.57,0,3.07.49,4.36,1.43,3.43,2.5,4.25,7.43,1.84,10.99l-11.28,16.63c-1.42,2.09-3.75,3.34-6.24,3.34h0Z"></path><path class="cls-2" d="M226.79,620.43c-3.09-1-16.21-10.83-26.83-18.78-6.92-5.18-14.07-10.54-20.25-14.91-15.45-10.93-31.99-19.17-38.48-19.17-.17,0-.32,0-.48.01-2.5.16-5.5,2.09-9.66,4.75-6.04,3.86-14.32,9.15-24.6,10.88-2.09.35-4.09.53-5.96.53h0c-6.16,0-10.93-1.94-13.08-5.31-1.41-2.21-1.53-4.84-.33-7.41,3.54-7.6,35.49-35.54,47.71-36.87.5-.05,1.04-.08,1.61-.08,8.63,0,25.58,5.72,36.8,9.5,7.55,2.55,11.56,3.88,13.15,3.88.06,0,.26-.01.32-.02,1.54-.18,7.53-1.67,17.83-4.44l28.17,72.15c-1.78,1.52-3.76,3.3-5.9,5.29Z"></path><path class="cls-2" d="M115.08,694.9c-1.34,0-2.62-.42-3.72-1.22-2.92-2.13-3.63-6.34-1.57-9.37l7.63-11.25c1.21-1.78,3.2-2.85,5.32-2.85,1.34,0,2.62.42,3.71,1.22,2.92,2.13,3.63,6.34,1.57,9.37l-7.63,11.25c-1.21,1.78-3.2,2.85-5.32,2.85h0Z"></path><path class="cls-2" d="M189.06,671.9c2.27,1.91,3.66,4.73,3.79,7.72.12,3.03-1.03,5.88-3.18,8-1.91,1.85-4.45,2.88-7.21,2.88s-5.33-.97-7.39-2.7l-21.81-18.2c1.24.21,2.54-.27,3.42-1.33l9.45-11.87c.55-.67.79-1.48.79-2.3,0-.24-.03-.49-.09-.73l22.23,18.54Z"></path><path class="cls-2" d="M234.16,646.4c-1.94,3.27-5.36,5.24-9.18,5.24-2.36,0-4.6-.76-6.48-2.24,0,0-26.81-20.99-33.29-26.14-.61-.48-1.36-.76-2.12-.76-.97,0-1.91.39-2.54,1.12-.7.73-1.03,1.7-.97,2.64.09.97.54,1.85,1.3,2.45l30.86,24.66c4.33,3.45,5.57,9.48,2.85,13.99-1.94,3.21-5.33,5.12-9.12,5.12-2.42,0-4.69-.79-6.57-2.3,0,0-26.78-21.41-33.01-26.47-.61-.48-1.33-.73-2.12-.73-.88,0-1.73.33-2.36.97-.7.7-1.06,1.64-1.03,2.57s.49,1.85,1.21,2.45l1.67,1.39c-1.09,0-2.21.45-2.94,1.39l-9.45,11.87c-.79,1-1,2.3-.6,3.45l-4.33-3.6c-.61-.51-1.36-.79-2.18-.79-.91,0-1.76.36-2.39,1-.73.7-1.09,1.67-1.03,2.64.03.97.52,1.88,1.27,2.48l16.78,13.33c2.09,1.63,3.36,4.15,3.54,6.82.18,2.7-.79,5.27-2.67,7.21-1.7,1.76-4.06,2.73-6.63,2.73-2.3,0-4.6-.82-6.42-2.27l-14.3-11.36,1.12-1.61c4-5.66,2.64-13.54-3.06-17.54-2.12-1.51-4.6-2.3-7.21-2.3-.97,0-1.91.12-2.82.33.03-.94-.06-1.85-.21-2.79-.64-3.63-2.64-6.78-5.63-8.9-2.3-1.64-5.06-2.48-7.91-2.48-.6,0-1.24.03-1.88.12.18-1.33.15-2.7-.09-4.06-.64-3.6-2.6-6.75-5.6-8.84-2.33-1.64-5.06-2.51-7.87-2.51-2.06,0-4.03.45-5.85,1.33-.64-3.21-2.45-6-5.12-7.87l-.79-.54c-2.12-1.51-4.63-2.3-7.24-2.3-4.12,0-8,2-10.33,5.33l-4.24,6.06c-4.51-5.63-9.81-13.33-13.78-19.2l27.44-70.27c7.72,3.09,12.81,4.79,15.08,5.03.45.03.94.06,1.45.06,2.09,0,4.85-.33,7.78-.7.03,0,.09,0,.15-.03-7.24,6.63-13.09,13.21-14.75,16.78-2.06,4.45-1.76,10.27.76,14.21,3.27,5.18,9.93,8.15,18.23,8.15,2.18,0,4.54-.21,6.97-.61,11.69-1.97,21.38-7.51,27.65-11.54,3.06-1.94,6.27-3.12,7.33-3.18,4.24,0,19.45,6.12,34.26,18.33,15.05,12.45,55.13,38.56,55.52,38.83,4.27,3.36,5.54,9.33,2.88,13.87Z"></path><path class="cls-2" d="M97.42,684.58c-1.58,0-3.09-.5-4.38-1.44-3.45-2.52-4.28-7.48-1.85-11.06l8.74-12.89c1.43-2.11,3.78-3.36,6.28-3.36,1.58,0,3.1.5,4.38,1.44,3.45,2.52,4.28,7.48,1.85,11.06l-8.74,12.89c-1.43,2.11-3.78,3.36-6.28,3.36h0Z"></path></g><path class="cls-1" d="M166.92,654.09c0,.82-.24,1.64-.79,2.3l-9.45,11.87c-.88,1.06-2.18,1.54-3.42,1.33l-3-2.51c-.39-1.15-.18-2.45.6-3.45l9.45-11.87c.73-.94,1.85-1.39,2.94-1.39l3.57,3c.06.24.09.48.09.73Z"></path></g></g><g><path class="cls-2" d="M794.96,547.22c-3.66-3.66-9.6-3.66-13.26,0l-76.74,76.74-26.71-26.71c-3.66-3.66-9.6-3.66-13.26,0-3.66,3.66-3.66,9.6,0,13.26l33.3,33.3c1.84,1.84,4.25,2.75,6.67,2.74,2.41.01,4.83-.9,6.67-2.74l83.33-83.33c3.66-3.66,3.66-9.6,0-13.26Z"></path><path class="cls-1" d="M794.96,547.22c-3.66-3.66-9.6-3.66-13.26,0l-76.74,76.74-26.71-26.71c-3.66-3.66-9.6-3.66-13.26,0-3.66,3.66-3.66,9.6,0,13.26l33.3,33.3c1.84,1.84,4.25,2.75,6.67,2.74,2.41.01,4.83-.9,6.67-2.74l83.33-83.33c3.66-3.66,3.66-9.6,0-13.26Z"></path><path class="cls-3" d="M738.91,553.59c-9.75-5.78-21.1-9.11-33.23-9.11-35.86,0-64.92,29.06-64.92,64.92s29.06,64.92,64.92,64.92c33.16,0,60.54-24.85,64.47-56.96"></path></g><path class="cls-1" d="M458.83,315.76v127.22h-38.99v-17.33c-3.95,5.62-9.35,10.18-16.19,13.68-6.69,3.34-14.14,5.02-22.34,5.02-9.73,0-18.32-2.13-25.76-6.38-7.45-4.41-13.22-10.72-17.33-18.92-4.1-8.21-6.16-17.86-6.16-28.96v-74.33h38.76v69.08c0,8.51,2.2,15.12,6.61,19.84s10.34,7.07,17.78,7.07,13.6-2.36,18.01-7.07c4.41-4.71,6.61-11.32,6.61-19.84v-69.08h38.99ZM373.1,301.63c-4.71,0-8.66-1.6-11.86-4.79-3.19-3.19-4.79-7.14-4.79-11.86s1.6-8.66,4.79-11.86c3.19-3.34,7.14-5.02,11.86-5.02s8.89,1.6,12.08,4.79c3.19,3.19,4.79,7.22,4.79,12.08s-1.67,8.66-5.02,11.86c-3.19,3.19-7.14,4.79-11.86,4.79ZM418.7,301.63c-4.71,0-8.66-1.6-11.86-4.79s-4.79-7.14-4.79-11.86,1.6-8.66,4.79-11.86c3.19-3.34,7.14-5.02,11.86-5.02s8.89,1.6,12.08,4.79c3.19,3.19,4.79,7.22,4.79,12.08s-1.67,8.66-5.02,11.86c-3.19,3.19-7.14,4.79-11.86,4.79Z"></path><polygon class="cls-2" points="561.98 128.57 516.88 98.94 516.88 117 486.12 117 261.61 117 253.66 117 253.66 140.15 261.61 140.15 486.12 140.15 516.88 140.15 516.88 158.2 561.98 128.57"></polygon><polygon class="cls-2" points="561.98 605.85 516.88 576.22 516.88 594.28 486.12 594.28 324.61 594.28 316.66 594.28 316.66 617.43 324.61 617.43 486.12 617.43 516.88 617.43 516.88 635.48 561.98 605.85"></polygon><path class="cls-2" d="M587.1,355.25l45.1,29.63v-18.06h30.3s.66.05.66.05c.35-.02.69.09,1.03.12.68.11,1.34.3,1.97.54,2.54.97,4.74,3.08,5.77,5.62.24.64.45,1.29.59,1.96l.07.51.05.25c0,.11.02-.06.03.28v.6s.02.19.02.19l.19,3.05c.29,3.99,1.13,7.93,2.75,11.58,3.16,7.31,9.05,13.36,16.26,16.73,3.59,1.7,7.51,2.72,11.49,3.02,1.99.17,4.03.18,6.06.2h19.88c2.03-.01,4.07-.04,6.06-.19,7.95-.54,15.61-4.02,21.2-9.66,5.6-5.63,9.04-13.29,9.56-21.25.13-2,.18-4.03.18-6.07v-57.43h-23.15v57.84c.07,3.57-1.34,7.15-3.88,9.68-2.51,2.56-6.09,3.98-9.66,3.93h-20.63c-1.79,0-3.57-.35-5.22-1.06-3.29-1.4-5.96-4.17-7.22-7.52-.65-1.67-.9-3.46-.89-5.25l-.06-1.34v-.08s0-.04,0-.04l.06.36c.02.15-.03-.2-.04-.27l-.12-.83-.26-1.66c-.44-2.2-1.1-4.36-1.94-6.44-3.43-8.33-10.33-15.03-18.72-18.28-2.09-.82-4.27-1.43-6.48-1.8-1.11-.17-2.22-.37-3.33-.4l-2.11-.1h-2.84s-5.52,0-5.52,0h-22.09v-18.06l-45.1,29.63Z"></path><path class="cls-2" d="M99.48,455.43l-29.63-45.1h18.06s0-7.69,0-7.69c.03-2.68-.09-4.74.15-8.42.42-6.66,2.21-13.27,5.24-19.23,4.94-9.71,13.08-17.75,22.99-22.36,4.93-2.31,10.24-3.89,15.66-4.47,5.97-.51,9.51-.26,13.8-.32h50.1s7.95,0,7.95,0v23.15h-7.95s-50.1,0-50.1,0c-4.06.01-8.88-.07-11.23.18-2.89.3-5.69,1.17-8.31,2.39-5.28,2.41-9.64,6.77-12.26,11.92-1.61,3.17-2.55,6.65-2.78,10.22-.14,1.44-.09,4.5-.1,6.95v7.69s18.06,0,18.06,0l-29.63,45.1Z"></path></g></svg> 