<?xml version="1.0" encoding="UTF-8"?> <svg xmlns="http://www.w3.org/2000/svg" width="84" height="42" viewBox="0 0 84 42" fill="none"><path d="M1.064 23.398C1.064 21.194 1.50733 19.2687 2.394 17.622C3.306 15.9753 4.56 14.7087 6.156 13.822C7.77733 12.9353 9.62667 12.492 11.704 12.492C14.364 12.492 16.5807 13.1887 18.354 14.582C20.1527 15.9753 21.3307 17.9387 21.888 20.472H14.972C14.3893 18.8507 13.262 18.04 11.59 18.04C10.3993 18.04 9.44933 18.5087 8.74 19.446C8.03067 20.358 7.676 21.6753 7.676 23.398C7.676 25.1207 8.03067 26.4507 8.74 27.388C9.44933 28.3 10.3993 28.756 11.59 28.756C13.262 28.756 14.3893 27.9453 14.972 26.324H21.888C21.3307 28.8067 20.1527 30.7573 18.354 32.176C16.5553 33.5947 14.3387 34.304 11.704 34.304C9.62667 34.304 7.77733 33.8607 6.156 32.974C4.56 32.0873 3.306 30.8207 2.394 29.174C1.50733 27.5273 1.064 25.602 1.064 23.398ZM31.8618 16.33C32.6218 15.1647 33.5718 14.2527 34.7118 13.594C35.8518 12.91 37.1185 12.568 38.5118 12.568V19.446H36.7258C35.1045 19.446 33.8885 19.8007 33.0778 20.51C32.2671 21.194 31.8618 22.41 31.8618 24.158V34H25.3638V12.796H31.8618V16.33ZM73.3032 28.642H82.4992V34H66.0452V28.832L74.8612 18.154H66.1212V12.796H82.3092V17.964L73.3032 28.642Z" fill="white"></path><path d="M62.5557 12.796V34H56.0577V31.112C55.3991 32.0493 54.4997 32.8093 53.3597 33.392C52.2451 33.9493 51.0037 34.228 49.6357 34.228C48.0144 34.228 46.5831 33.8733 45.3417 33.164C44.1004 32.4293 43.1377 31.378 42.4537 30.01C41.7697 28.642 41.4277 27.0333 41.4277 25.184V12.796H47.8877V24.31C47.8877 25.7287 48.2551 26.8307 48.9897 27.616C49.7244 28.4013 50.7124 28.794 51.9537 28.794C53.2204 28.794 54.2211 28.4013 54.9557 27.616C55.6904 26.8307 56.0577 25.7287 56.0577 24.31V12.796H62.5557ZM48.2677 10.44C47.4824 10.44 46.8237 10.174 46.2917 9.642C45.7597 9.11 45.4937 8.45133 45.4937 7.666C45.4937 6.88067 45.7597 6.222 46.2917 5.69C46.8237 5.13267 47.4824 4.854 48.2677 4.854C49.0784 4.854 49.7497 5.12 50.2817 5.652C50.8137 6.184 51.0797 6.85533 51.0797 7.666C51.0797 8.45133 50.8011 9.11 50.2437 9.642C49.7117 10.174 49.0531 10.44 48.2677 10.44ZM55.8677 10.44C55.0824 10.44 54.4237 10.174 53.8917 9.642C53.3597 9.11 53.0937 8.45133 53.0937 7.666C53.0937 6.88067 53.3597 6.222 53.8917 5.69C54.4237 5.13267 55.0824 4.854 55.8677 4.854C56.6784 4.854 57.3497 5.12 57.8817 5.652C58.4137 6.184 58.6797 6.85533 58.6797 7.666C58.6797 8.45133 58.4011 9.11 57.8437 9.642C57.3117 10.174 56.6531 10.44 55.8677 10.44Z" fill="url(#paint0_linear_286_13)"></path><defs><linearGradient id="paint0_linear_286_13" x1="-3.18483" y1="10.5" x2="79.0418" y2="2.93229" gradientUnits="userSpaceOnUse"><stop stop-color="#00A6FB"></stop><stop offset="1" stop-color="#5CC9FF"></stop></linearGradient></defs></svg> 