<?xml version="1.0" encoding="UTF-8"?>
<svg id="Camada_2" data-name="Camada 2" xmlns="http://www.w3.org/2000/svg" viewBox="0 0 108 152.01">
  <defs>
    <style>
      .cls-1 {
        fill: #fff;
        stroke-width: 0px;
      }
    </style>
  </defs>
  <g id="Camada_2-2" data-name="Camada 2">
    <path class="cls-1" d="M108,28.84v-.7c0-15.55-12.6-28.14-28.15-28.14H29.18c-.42,0-.84.01-1.26.03C12.43.69.08,13.4,0,29.03c.06,10.2,4.92,19.15,12.21,24.22-7.34,4.89-12.21,13.54-12.21,23.38,0,10.61,5.65,19.82,13.95,24.45C5.76,105.87.27,114.17.02,123.66H.02c.18,7.75,3.4,14.73,8.5,19.84.61.61,1.25,1.2,1.92,1.75.18.17.37.31.56.45,5.12,3.87,11.67,6.23,18.81,6.31,0,0,.01.01.02,0,.39,0,.78-.01,1.17-.01.01.01.02.01.03,0,.02.01.03.01.05,0,.04.01.07.01.11,0,.43-.01.86-.03,1.28-.06,15.65-1.05,27.98-12.99,27.98-27.57,0-9.89,0-18.15-.03-25.01,5.04,4.41,11.64,7.07,18.86,7.07,13.5,0,24.83-9.32,27.89-21.87h0c.41-2.82.67-5.68.77-8.58h0c-.57-9.6-5.85-17.93-13.57-22.71,8.18-5.05,13.63-14.11,13.63-24.43ZM47.47,123.51c0,8.53-6.92,15.45-15.45,15.45h-1.05c-9.11,0-16.5-7.39-16.5-16.5s7.39-16.5,16.5-16.5h16.5v17.55ZM47.47,92.47h-16.5c-9.11,0-16.5-7.39-16.5-16.5s7.39-16.5,16.5-16.5h16.5v33ZM47.47,45.97h-16.5c-9.11,0-16.5-7.39-16.5-16.5s7.39-16.5,16.5-16.5h16.5v33ZM77.02,92.51h0c-9.11,0-16.5-7.39-16.5-16.5s7.39-16.5,16.5-16.5h0c9.11,0,16.5,7.39,16.5,16.5s-7.39,16.5-16.5,16.5ZM77.02,45.97h-16.5V12.97h16.5c9.11,0,16.5,7.39,16.5,16.5s-7.39,16.5-16.5,16.5Z"/>
  </g>
</svg>