<?xml version="1.0" encoding="UTF-8"?>
<svg id="Camada_2" data-name="Camada 2" xmlns="http://www.w3.org/2000/svg" viewBox="0 0 139.79 159.78">
  <defs>
    <style>
      .cls-1 {
        fill: #fff;
        stroke-width: 0px;
      }
    </style>
  </defs>
  <g id="Camada_2-2" data-name="Camada 2">
    <path class="cls-1" d="M136.99,0H2.8C1.16,0-.13,1.4,0,3.03l11.31,136.3c.23,2.72,2.11,5.02,4.73,5.78l47.73,13.8c4,1.16,8.25,1.17,12.27.05l47.29-13.28c2.64-.74,4.54-3.04,4.78-5.77L139.78,3.04c.14-1.63-1.15-3.04-2.79-3.04ZM112.56,43.8c-.17,1.82-1.69,3.21-3.51,3.22l-60.04.35c-2.15.01-3.79,1.91-3.5,4.04l1.56,11.32c.24,1.76,1.74,3.06,3.52,3.06h56.41c2.09,0,3.73,1.8,3.53,3.88l-4.32,46.79c-.13,1.43-1.11,2.64-2.48,3.06l-33.11,10.32c-.68.21-1.41.21-2.09,0l-32.64-9.94c-1.39-.42-2.38-1.64-2.5-3.09l-1.8-20.56c-.18-2.07,1.45-3.86,3.54-3.86h9.74c1.82,0,3.35,1.38,3.53,3.2l.81,8.08c.15,1.46,1.17,2.68,2.58,3.07l17.12,4.75c.64.18,1.32.17,1.96-.02l16.4-4.9c1.38-.41,2.38-1.62,2.52-3.05l1.73-17.6c.21-2.09-1.43-3.9-3.53-3.9h-53.92c-1.82,0-3.35-1.38-3.53-3.19l-4.56-44.55c-.21-2.09,1.43-3.91,3.53-3.91h80.41c2.09,0,3.73,1.8,3.53,3.88l-.9,9.55Z"/>
  </g>
</svg>