<?xml version="1.0" encoding="UTF-8"?>
<svg id="Camada_2" data-name="Camada 2" xmlns="http://www.w3.org/2000/svg" viewBox="0 0 159.29 131.41">
  <defs>
    <style>
      .cls-1 {
        fill: #fff;
        stroke-width: 0px;
      }
    </style>
  </defs>
  <g id="Camada_2-2" data-name="Camada 2">
    <g>
      <path class="cls-1" d="M78.21,6.32c-.26-.85-1.05-1.43-1.94-1.43h-36.91c-.89,0-1.68.58-1.94,1.44L.09,128.79c-.4,1.31.58,2.62,1.94,2.62h27.55c.89,0,1.67-.58,1.94-1.42l8.76-27.94c.27-.85,1.05-1.42,1.94-1.42h29.39c.88,0,1.65.56,1.93,1.39l9.25,27.99c.28.83,1.05,1.39,1.93,1.39h29.43c1.37,0,2.34-1.32,1.94-2.63L78.21,6.32ZM67.52,76.17h-21.58c-.23,0-.4-.22-.34-.44l10.32-39.79c.09-.35.58-.35.68,0l11.26,39.79c.06.22-.1.45-.34.45Z"/>
      <rect class="cls-1" x="127.33" y="39.06" width="31.96" height="92.35" rx="2.48" ry="2.48"/>
      <circle class="cls-1" cx="142.68" cy="15.81" r="15.81"/>
    </g>
  </g>
</svg>