<?xml version="1.0" encoding="UTF-8"?>
<svg id="Camada_2" data-name="Camada 2" xmlns="http://www.w3.org/2000/svg" viewBox="0 0 160 152.58">
  <defs>
    <style>
      .cls-1 {
        fill: #fff;
        stroke-width: 0px;
      }
    </style>
  </defs>
  <g id="Camada_2-2" data-name="Camada 2">
    <g>
      <path class="cls-1" d="M4.13,6.26h26.61c2.28,0,4.13,1.85,4.13,4.13v135.74c0,2.28-1.85,4.13-4.13,4.13H4.13c-2.28,0-4.13-1.85-4.13-4.13V10.39c0-2.28,1.85-4.13,4.13-4.13Z"/>
      <path class="cls-1" d="M155.87,0h-27.85c-2.28,0-4.13,1.85-4.13,4.13v47.77c-7.17-5.6-16.01-8.86-26.08-8.86-25.32,0-45.85,24.23-45.85,54.1,0,32.38,19.18,55.44,44.51,55.44,11.61,0,22.5-5.37,30.88-14.06v7.61c0,2.28,1.85,4.13,4.13,4.13h24.39c2.28,0,4.13-1.85,4.13-4.13V4.13c0-2.28-1.85-4.13-4.13-4.13ZM123.89,107.32c0,8.48-6.88,15.36-15.36,15.36h-2.87c-9.92,0-17.97-8.04-17.97-17.97v-15.13c0-9.92,8.04-17.97,17.97-17.97h2.87c8.48,0,15.36,6.88,15.36,15.36v20.35Z"/>
    </g>
  </g>
</svg>