<?xml version="1.0" encoding="UTF-8"?>
<svg id="Camada_2" data-name="Camada 2" xmlns="http://www.w3.org/2000/svg" viewBox="0 0 154 154">
  <defs>
    <style>
      .cls-1 {
        fill: #fff;
      }

      .cls-1, .cls-2 {
        stroke-width: 0px;
      }

      .cls-2 {
        fill: #242424;
      }
    </style>
  </defs>
  <g id="Camada_2-2" data-name="Camada 2">
    <g>
      <path class="cls-2" d="M0,0v154h154V0H0ZM77.52,144.21c-5.98,3.4-13.46,4.22-20.1,2.56-6.48-1.61-13-6.66-15.29-13.1-.08-.22,11.16-7.5,12.29-6.84.29.17.48.46.65.75,1.91,3.06,4.67,5.99,8.45,6.42,8.47.97,8.75-8.01,8.89-13.99.2-8.41-.15-16.83-.15-25.25v-21.34h15.07v3.51c0,15.97-.1,31.94.09,47.88.1,8.21-2.51,15.22-9.9,19.41ZM146.93,132.47c-1.74,7.76-8.65,12.08-15.93,13.96-6.99,1.8-15.14,1.97-21.73-1.25-2.92-1.43-5.54-3.39-7.89-5.62-.58-.55-6.3-7.04-6.16-7.13,4.11-2.38,8.32-4.65,12.35-7.17.19-.12,3.83,4.11,4.26,4.53,4.6,4.35,18.73,7.43,20.26-1.6.27-1.57-.14-3.21-.93-4.6-2.64-4.66-8.45-7.03-13.11-9.07-4.72-2.07-9.6-4.16-13.11-8.07-7.18-8.01-6.67-22.23,1.71-29.2,3.14-2.61,7.08-4.18,11.11-4.81,5.13-.8,10.51-.1,15.17,2.19,4.45,2.18,8.15,5.74,10.77,9.95-3.93,2.51-7.86,5.01-11.78,7.52-1.36-2.07-3.1-3.94-5.27-5.14-2.17-1.2-4.81-1.66-7.18-.93-5.9,1.83-5.79,8.39-1.75,12.06,1.95,1.77,4.41,2.86,6.88,3.79,7.68,2.88,16.16,5.98,20.34,13.64,2.75,5.05,3.23,11.41,1.99,16.95Z"/>
      <path class="cls-1" d="M87.33,76.91v-3.51h-15.07v21.34c0,8.41.34,16.84.15,25.25-.14,5.98-.42,14.96-8.89,13.99-3.77-.43-6.53-3.36-8.45-6.42-.18-.28-.37-.58-.65-.75-1.12-.66-12.36,6.62-12.29,6.84,2.28,6.44,8.81,11.49,15.29,13.1,6.65,1.65,14.12.84,20.1-2.56,7.38-4.2,9.99-11.21,9.9-19.41-.19-15.94-.09-31.91-.09-47.88Z"/>
      <path class="cls-1" d="M124.61,101.87c-2.47-.93-4.93-2.02-6.88-3.79-4.03-3.67-4.14-10.23,1.75-12.06,2.37-.73,5.01-.27,7.18.93,2.17,1.2,3.91,3.07,5.27,5.14,3.93-2.51,7.86-5.01,11.78-7.52-2.61-4.2-6.32-7.77-10.77-9.95-4.66-2.28-10.04-2.98-15.17-2.19-4.04.63-7.97,2.2-11.11,4.81-8.38,6.97-8.89,21.18-1.71,29.2,3.51,3.92,8.4,6,13.11,8.07,4.66,2.04,10.47,4.41,13.11,9.07.79,1.39,1.2,3.03.93,4.6-1.54,9.03-15.67,5.95-20.26,1.6-.44-.41-4.07-4.65-4.26-4.53-4.03,2.52-8.24,4.78-12.35,7.17-.14.08,5.58,6.58,6.16,7.13,2.35,2.23,4.97,4.19,7.89,5.62,6.59,3.23,14.74,3.06,21.73,1.25,7.28-1.88,14.2-6.2,15.93-13.96,1.24-5.54.76-11.9-1.99-16.95-4.17-7.66-12.66-10.76-20.34-13.64Z"/>
    </g>
  </g>
</svg>