<?xml version="1.0" encoding="UTF-8"?>
<svg id="Camada_2" data-name="Camada 2" xmlns="http://www.w3.org/2000/svg" viewBox="0 0 160.53 123.91">
  <defs>
    <style>
      .cls-1 {
        fill: #fff;
        stroke-width: 0px;
      }
    </style>
  </defs>
  <g id="Camada_2-2" data-name="Camada 2">
    <g>
      <path class="cls-1" d="M57.03,1.46c-4.55-1.04-9.21-1.46-13.87-1.46h-13.9l-6.71.47L2.14,1.89c-1.19.04-2.14,1.01-2.14,2.21v116.03c0,.94.76,1.7,1.69,1.7h25.87c.94,0,1.7-.76,1.7-1.7v-40.16l14.16-.39c3.96-.11,7.92-.53,11.78-1.43,9.98-2.33,18.04-6.93,23.6-13.41,5.56-6.48,8.63-14.82,8.63-24.66,1.01-21.6-11.42-34.27-30.4-38.62ZM58.38,40.04c0,9.15-7.42,16.57-16.57,16.57h-12.55V23.48h0s12.55,0,12.55,0c9.15,0,16.57,7.42,16.57,16.57h0Z"/>
      <path class="cls-1" d="M151.63,55.48l4.81-16.99c.27-.95-.16-1.96-1.03-2.42-15.91-8.36-40.84-8.17-54,5.34-6.99,7.17-9.03,18.41-5.66,27.75,2.42,6.73,8.06,11.16,14.25,14.3,6.26,3.17,19.53,4.62,21.14,13.09,2.01,10.57-26.68,1.14-31.18-.63-1.16-.46-2.45.19-2.78,1.38l-5.03,18c-.25.9.12,1.86.92,2.35,6.25,3.85,13.71,5.06,20.86,5.83,10.9,1.17,22.95.21,32.64-5.3,10.96-6.22,16.22-18.92,13.07-31.17-1.94-7.54-6.81-12.59-13.58-16.17-6.39-3.38-13.72-4.82-19.93-8.5-2.1-1.24-3.84-3.23-2.68-5.75,3.14-6.83,17.09-2.68,25.49.31,1.14.41,2.38-.24,2.71-1.41Z"/>
    </g>
  </g>
</svg>