<?xml version="1.0" encoding="UTF-8"?>
<svg id="Camada_2" data-name="Camada 2" xmlns="http://www.w3.org/2000/svg" viewBox="0 0 162.24 162.24">
  <defs>
    <style>
      .cls-1 {
        fill: #fff;
        stroke-width: 0px;
      }
    </style>
  </defs>
  <g id="Camada_2-2" data-name="Camada 2">
    <g>
      <g>
        <polyline class="cls-1" points="60.36 144.37 60.55 143.99 81.12 89.46 101.11 144.61"/>
        <path class="cls-1" d="M25.47,43.55h23.87v6.52h-9l24.26,68.48,13.56-38.74-10.69-29.87h-9.26v-6.26h41.34v6.39h-9.91l24.23,68.29s5.97-14.29,10.96-34.24c1.76-7.05.9-14.51-1.58-21.28-1.16-3.17-2.64-6.38-4.51-9.21-1.69-2.57-3.98-4.89-4.75-7.96-1.79-7.23,6.34-14.9,13.4-13.28"/>
        <polyline class="cls-1" points="19.54 54.49 19.6 54.64 49.84 139.9"/>
        <path class="cls-1" d="M59.97,143.99c6.85,2.37,13.49,3.66,21.15,3.66,6.96,0,13.68-1.06,19.99-3.04"/>
        <path class="cls-1" d="M25.47,43.55c12-17.93,32.45-29.74,55.65-29.74,17.95,0,34.25,7.07,46.27,18.58"/>
        <path class="cls-1" d="M138.36,46.05c.15.45.29.89.43,1.33,1.93,6.21,1.89,13.01-.37,19.13-.02.06-21.33,57.96-27.25,74.03,21.87-11.01,36.87-33.66,36.87-59.81,0-12.7-3.54-24.57-9.68-34.68Z"/>
        <path class="cls-1" d="M19.54,54.49c-3.44,8.06-5.34,16.93-5.34,26.24,0,25.66,14.44,47.95,35.64,59.17"/>
      </g>
      <path class="cls-1" d="M81.12,0C36.32,0,0,36.32,0,81.12s36.32,81.12,81.12,81.12,81.12-36.32,81.12-81.12S125.92,0,81.12,0ZM81.12,155.19c-40.91,0-74.08-33.16-74.08-74.08S40.21,7.04,81.12,7.04s74.08,33.17,74.08,74.08-33.16,74.08-74.08,74.08Z"/>
    </g>
  </g>
</svg>